<?xml version="1.0" encoding="utf-8"?><svg transform="matrix(1, 0, 0, 1, 0, 0)" version="1.1" xmlns="http://www.w3.org/2000/svg" xmlns:xlink="http://www.w3.org/1999/xlink" viewBox="-2,-60.5,228,136" style="display: block; width: 224px; height: 132px; cursor: grab; position: relative; visibility: visible;" width="224" height="132"><defs><linearGradient id="b6ec3344-13a5-4ea2-90b8-7542ae16c5f8"/><linearGradient id="1a9ddc0f-0b2f-471a-9f87-f1c9f1b99fe2"/></defs><g transform="matrix(1, 0, 0, 1, 0, 0)"><g transform="matrix(1, 0, 0, 1, 136, 45.5)" visibility="visible" style="cursor: default;"><path transform="matrix(1, 0, 0, 1, 0, 0)" fill="rgba(0,0,0,0)" stroke="rgba(0,0,0,0)" stroke-width="3" d="M3,0l66,0a3,3,0,0,1,3,3l0,22a3,3,0,0,1,-3,3l-66,0a3,3,0,0,1,-3,-3l0,-22a3,3,0,0,1,3,-3z"/><path fill="none" transform="matrix(1, 0, 0, 1, 0, 0)" stroke="#959EA6" stroke-width="3" d="M-84 -24 L-80 -24 C-50.968 -24, -50.967999999999996 28, -4 28 L0 28L72 28" style="pointer-events: none;"/><foreignObject x="8" y="2" width="56" height="24" transform="matrix(1, 0, 0, 1, 0, 0)"><div xmlns="http://www.w3.org/1999/xhtml" class="unselectable" style="outline: none; white-space: normal; letter-spacing: normal; font-size: 14px; font-weight: 400; font-family: PingFangSC-Medium, &quot;PingFang SC&quot;; max-width: 480px; min-width: 10px; min-height: 20px; line-height: 1.74; word-break: break-word; color: rgb(70, 70, 70);">同源策略​</div></foreignObject></g><g transform="matrix(1, 0, 0, 1, 136, -6.5)" visibility="visible" style="cursor: default;"><path transform="matrix(1, 0, 0, 1, 0, 0)" fill="rgba(0,0,0,0)" stroke="rgba(0,0,0,0)" stroke-width="3" d="M3,0l39,0a3,3,0,0,1,3,3l0,22a3,3,0,0,1,-3,3l-39,0a3,3,0,0,1,-3,-3l0,-22a3,3,0,0,1,3,-3z"/><path fill="none" transform="matrix(1, 0, 0, 1, 0, 0)" stroke="#959EA6" stroke-width="3" d="M-84 28 L-80 28 C-50.968 28, -50.967999999999996 28, -4 28 L0 28L45 28" style="pointer-events: none;"/><foreignObject x="8.2890625" y="2" width="29" height="24" transform="matrix(1, 0, 0, 1, 0, 0)"><div xmlns="http://www.w3.org/1999/xhtml" class="unselectable" style="outline: none; white-space: normal; letter-spacing: normal; font-size: 14px; font-weight: 400; font-family: PingFangSC-Medium, &quot;PingFang SC&quot;; max-width: 480px; min-width: 10px; min-height: 20px; line-height: 1.74; word-break: break-word; color: rgb(70, 70, 70);">CSP</div></foreignObject></g><g transform="matrix(1, 0, 0, 1, 136, -58.5)" visibility="visible" style="cursor: default;"><path transform="matrix(1, 0, 0, 1, 0, 0)" fill="rgba(0,0,0,0)" stroke="rgba(0,0,0,0)" stroke-width="3" d="M3,0l82,0a3,3,0,0,1,3,3l0,22a3,3,0,0,1,-3,3l-82,0a3,3,0,0,1,-3,-3l0,-22a3,3,0,0,1,3,-3z"/><path fill="none" transform="matrix(1, 0, 0, 1, 0, 0)" stroke="#959EA6" stroke-width="3" d="M-84 80 L-80 80 C-50.968 80, -50.967999999999996 28, -4 28 L0 28L88 28" style="pointer-events: none;"/><foreignObject x="8.2734375" y="2" width="72" height="24" transform="matrix(1, 0, 0, 1, 0, 0)"><div xmlns="http://www.w3.org/1999/xhtml" class="unselectable" style="outline: none; white-space: normal; letter-spacing: normal; font-size: 14px; font-weight: 400; font-family: PingFangSC-Medium, &quot;PingFang SC&quot;; max-width: 480px; min-width: 10px; min-height: 20px; line-height: 1.74; word-break: break-word; color: rgb(70, 70, 70);">XSS/CSRF</div></foreignObject></g><g transform="matrix(1, 0, 0, 1, 0, 0)" style="cursor: default;" visibility="visible"><path transform="matrix(1, 0, 0, 1, 0, 0)" fill="#577DF9" stroke="rgba(0, 0, 0, 0)" stroke-width="1" d="M4,0l96,0a4,4,0,0,1,4,4l0,35a4,4,0,0,1,-4,4l-96,0a4,4,0,0,1,-4,-4l0,-35a4,4,0,0,1,4,-4z"/><foreignObject x="16" y="6" width="72" height="31" transform="matrix(1, 0, 0, 1, 0, 0)"><div xmlns="http://www.w3.org/1999/xhtml" class="unselectable" style="letter-spacing: normal; font-size: 18px; font-family: PingFangSC-Medium, &quot;PingFang SC&quot;; max-width: 480px; min-width: 24px; line-height: 1.74; word-break: break-word; outline: none; color: white;">前端安全​</div></foreignObject></g></g></svg>