<?xml version="1.0" encoding="utf-8"?><svg transform="matrix(1, 0, 0, 1, 0, 0)" version="1.1" xmlns="http://www.w3.org/2000/svg" xmlns:xlink="http://www.w3.org/1999/xlink" style="width: 372px; height: 270px; cursor: -webkit-grab; position: relative; visibility: visible;" viewBox="-2,-119,376,274" width="372" height="270"><g transform="matrix(1, 0, 0, 1, 0, 0)"><g transform="matrix(1, 0, 0, 1, 180, 62)" visibility="visible" style="cursor: move;"><path stroke="#959EA6" fill="rgba(0,0,0,0)" stroke-width="3" transform="matrix(1, 0, 0, 1, 0, 0)" d="M-108 -33 C-66.744 -33, -66.744 28, 0 28 L64 28" style="pointer-events: none;"></path><path transform="matrix(1, 0, 0, 1, 0, 0)" d="M2,0l60,0a2,2,0,0,1,2,2l0,24a2,2,0,0,1,-2,2l-60,0a2,2,0,0,1,-2,-2l0,-24a2,2,0,0,1,2,-2z" stroke="rgba(0,0,0,0)" fill="rgba(0,0,0,0)" stroke-width="1"></path><foreignObject x="4" y="4" width="56" height="20" transform="matrix(1, 0, 0, 1, 0, 0)" style="color: rgb(70, 70, 70);"><div xmlns="http://www.w3.org/1999/xhtml" class="unselectable" style="outline: none; white-space: normal; letter-spacing: 0px; color: rgb(70, 70, 70); font-size: 14px; font-family: PingFangSC-Medium, &quot;PingFang SC&quot;; max-width: 320px; min-width: 10px; min-height: 20px; line-height: 20px; word-break: break-all;">动态编程​</div></foreignObject></g><g transform="matrix(1, 0, 0, 1, 180, -1)" visibility="visible" style="cursor: move;"><path stroke="#959EA6" fill="rgba(0,0,0,0)" stroke-width="3" transform="matrix(1, 0, 0, 1, 0, 0)" d="M-108 30 C-66.744 30, -66.744 28, 0 28 L36 28" style="pointer-events: none;"></path><path transform="matrix(1, 0, 0, 1, 0, 0)" d="M2,0l32,0a2,2,0,0,1,2,2l0,24a2,2,0,0,1,-2,2l-32,0a2,2,0,0,1,-2,-2l0,-24a2,2,0,0,1,2,-2z" stroke="rgba(0,0,0,0)" fill="rgba(0,0,0,0)" stroke-width="1"></path><foreignObject x="4" y="4" width="28" height="20" transform="matrix(1, 0, 0, 1, 0, 0)" style="color: rgb(70, 70, 70);"><div xmlns="http://www.w3.org/1999/xhtml" class="unselectable" style="outline: none; white-space: normal; letter-spacing: 0px; color: rgb(70, 70, 70); font-size: 14px; font-family: PingFangSC-Medium, &quot;PingFang SC&quot;; max-width: 320px; min-width: 10px; min-height: 20px; line-height: 20px; word-break: break-all;">分治</div></foreignObject></g><g transform="matrix(1, 0, 0, 1, 180, -117)" visibility="visible" style="cursor: move;"><path stroke="#959EA6" fill="rgba(0,0,0,0)" stroke-width="3" transform="matrix(1, 0, 0, 1, 0, 0)" d="M-108 146 C-66.744 146, -66.744 28, 0 28 L54 28" style="pointer-events: none;"></path><path transform="matrix(1, 0, 0, 1, 0, 0)" d="M2,0l50,0a2,2,0,0,1,2,2l0,24a2,2,0,0,1,-2,2l-50,0a2,2,0,0,1,-2,-2l0,-24a2,2,0,0,1,2,-2z" stroke="rgba(0,0,0,0)" fill="rgba(0,0,0,0)" stroke-width="1"></path><foreignObject x="4" y="4" width="46" height="20" transform="matrix(1, 0, 0, 1, 0, 0)" style="color: rgb(70, 70, 70);"><div xmlns="http://www.w3.org/1999/xhtml" class="unselectable" style="outline: none; white-space: normal; letter-spacing: 0px; color: rgb(70, 70, 70); font-size: 14px; font-family: PingFangSC-Medium, &quot;PingFang SC&quot;; max-width: 320px; min-width: 10px; min-height: 20px; line-height: 20px; word-break: break-all;">BF算法</div></foreignObject></g><g transform="matrix(1, 0, 0, 1, 180, -59)" visibility="visible" style="cursor: move;"><path stroke="#959EA6" fill="rgba(0,0,0,0)" stroke-width="3" transform="matrix(1, 0, 0, 1, 0, 0)" d="M-108 88 C-66.744 88, -66.744 28, 0 28 L64 28" style="pointer-events: none;"></path><path transform="matrix(1, 0, 0, 1, 0, 0)" d="M2,0l60,0a2,2,0,0,1,2,2l0,24a2,2,0,0,1,-2,2l-60,0a2,2,0,0,1,-2,-2l0,-24a2,2,0,0,1,2,-2z" stroke="rgba(0,0,0,0)" fill="rgba(0,0,0,0)" stroke-width="1"></path><foreignObject x="4" y="4" width="56" height="20" transform="matrix(1, 0, 0, 1, 0, 0)" style="color: rgb(70, 70, 70);"><div xmlns="http://www.w3.org/1999/xhtml" class="unselectable" style="outline: none; white-space: normal; letter-spacing: 0px; color: rgb(70, 70, 70); font-size: 14px; font-family: PingFangSC-Medium, &quot;PingFang SC&quot;; max-width: 320px; min-width: 10px; min-height: 20px; line-height: 20px; word-break: break-all;">贪心算法</div></foreignObject></g><g transform="matrix(1, 0, 0, 1, 180, 125)" visibility="visible" style="cursor: move;"><path stroke="#959EA6" fill="rgba(0,0,0,0)" stroke-width="3" transform="matrix(1, 0, 0, 1, 0, 0)" d="M-108 -96 C-66.744 -96, -66.744 28, 0 28 L50 28" style="pointer-events: none;"></path><path transform="matrix(1, 0, 0, 1, 0, 0)" d="M2,0l46,0a2,2,0,0,1,2,2l0,24a2,2,0,0,1,-2,2l-46,0a2,2,0,0,1,-2,-2l0,-24a2,2,0,0,1,2,-2z" stroke="rgba(0,0,0,0)" fill="rgba(0,0,0,0)" stroke-width="1"></path><foreignObject x="4" y="4" width="42" height="20" transform="matrix(1, 0, 0, 1, 0, 0)" style="color: rgb(70, 70, 70);"><div xmlns="http://www.w3.org/1999/xhtml" class="unselectable" style="outline: none; white-space: normal; letter-spacing: 0px; color: rgb(70, 70, 70); font-size: 14px; font-family: PingFangSC-Medium, &quot;PingFang SC&quot;; max-width: 320px; min-width: 10px; min-height: 20px; line-height: 20px; word-break: break-all;">回溯法</div></foreignObject></g><g transform="matrix(1, 0, 0, 1, 280, 49)" visibility="visible" style="cursor: move;"><path stroke="#959EA6" fill="rgba(0,0,0,0)" stroke-width="3" transform="matrix(1, 0, 0, 1, 0, 0)" d="M-36 41 C-22.247999999999998 41, -22.248 24, 0 24 L80 24" style="pointer-events: none;"></path><path transform="matrix(1, 0, 0, 1, 0, 0)" d="M2,0l76,0a2,2,0,0,1,2,2l0,20a2,2,0,0,1,-2,2l-76,0a2,2,0,0,1,-2,-2l0,-20a2,2,0,0,1,2,-2z" stroke="rgba(0,0,0,0)" fill="rgba(0,0,0,0)" stroke-width="1"></path><foreignObject x="4" y="4" width="72" height="16" transform="matrix(1, 0, 0, 1, 0, 0)" style="color: rgb(70, 70, 70);"><div xmlns="http://www.w3.org/1999/xhtml" class="unselectable" style="outline: none; white-space: normal; letter-spacing: 0px; color: rgb(70, 70, 70); font-size: 12px; font-family: PingFangSC-Regular, &quot;PingFang SC&quot;; max-width: 320px; min-width: 8px; min-height: 16px; line-height: 16px; word-break: break-all;">斐波那契数列</div></foreignObject></g><g transform="matrix(1, 0, 0, 1, 280, 83)" visibility="visible" style="cursor: move;"><path stroke="#959EA6" fill="rgba(0,0,0,0)" stroke-width="3" transform="matrix(1, 0, 0, 1, 0, 0)" d="M-36 7 C-22.247999999999998 7, -22.248 24, 0 24 L92 24" style="pointer-events: none;"></path><path transform="matrix(1, 0, 0, 1, 0, 0)" d="M2,0l88,0a2,2,0,0,1,2,2l0,20a2,2,0,0,1,-2,2l-88,0a2,2,0,0,1,-2,-2l0,-20a2,2,0,0,1,2,-2z" stroke="rgba(0,0,0,0)" fill="rgba(0,0,0,0)" stroke-width="1"></path><foreignObject x="4" y="4" width="84" height="16" transform="matrix(1, 0, 0, 1, 0, 0)" style="color: rgb(70, 70, 70);"><div xmlns="http://www.w3.org/1999/xhtml" class="unselectable" style="outline: none; white-space: normal; letter-spacing: 0px; color: rgb(70, 70, 70); font-size: 12px; font-family: PingFangSC-Regular, &quot;PingFang SC&quot;; max-width: 320px; min-width: 8px; min-height: 16px; line-height: 16px; word-break: break-all;">正则表达式匹配</div></foreignObject></g><g transform="matrix(1, 0, 0, 1, 0, 0)" style="cursor: default;"><path transform="matrix(1, 0, 0, 1, 0, 0)" d="M4,0l136,0a4,4,0,0,1,4,4l0,50a4,4,0,0,1,-4,4l-136,0a4,4,0,0,1,-4,-4l0,-50a4,4,0,0,1,4,-4z" stroke="#587EF7" fill="#587EF7" stroke-width="1"></path><foreignObject x="24" y="12" width="96" height="34" transform="matrix(1, 0, 0, 1, 0, 0)" style="color: white;"><div xmlns="http://www.w3.org/1999/xhtml" class="lake-diagram-mindmap-root unselectable" style="outline: none; white-space: normal; letter-spacing: 0px; color: white; font-size: 24px; font-family: PingFangSC-Medium, &quot;PingFang SC&quot;; max-width: 320px; min-width: 24px; line-height: 34px;">思维导图</div></foreignObject></g></g></svg>